<mxfile host="app.diagrams.net" modified="2022-03-09T15:18:45.825Z" agent="5.0 (Macintosh; Intel Mac OS X 10_15_7) AppleWebKit/537.36 (KHTML, like Gecko) Chrome/98.0.4758.109 Safari/537.36" etag="ZS9xh5LkI2ZP6ARgCVXO" version="16.6.7" type="github">
  <diagram id="1qALQ5FSQBsD7pykuRf2" name="Page-1">
    <mxGraphModel dx="1554" dy="845" grid="0" gridSize="10" guides="1" tooltips="1" connect="1" arrows="1" fold="1" page="1" pageScale="1" pageWidth="827" pageHeight="1169" math="0" shadow="0">
      <root>
        <mxCell id="0" />
        <mxCell id="1" parent="0" />
        <mxCell id="FqokVIeA1Z4mHKtunvhO-13" value="" style="rounded=0;whiteSpace=wrap;html=1;dashed=1;dashPattern=1 4;" vertex="1" parent="1">
          <mxGeometry x="25" y="136" width="225" height="421" as="geometry" />
        </mxCell>
        <mxCell id="FqokVIeA1Z4mHKtunvhO-5" style="rounded=0;orthogonalLoop=1;jettySize=auto;html=1;" edge="1" parent="1" source="FqokVIeA1Z4mHKtunvhO-1" target="FqokVIeA1Z4mHKtunvhO-4">
          <mxGeometry relative="1" as="geometry" />
        </mxCell>
        <mxCell id="FqokVIeA1Z4mHKtunvhO-8" value="行为数据" style="edgeLabel;html=1;align=center;verticalAlign=middle;resizable=0;points=[];" vertex="1" connectable="0" parent="FqokVIeA1Z4mHKtunvhO-5">
          <mxGeometry x="-0.2258" y="1" relative="1" as="geometry">
            <mxPoint as="offset" />
          </mxGeometry>
        </mxCell>
        <mxCell id="FqokVIeA1Z4mHKtunvhO-1" value="API" style="ellipse;whiteSpace=wrap;html=1;fillColor=#f5f5f5;fontColor=#333333;strokeColor=#666666;" vertex="1" parent="1">
          <mxGeometry x="57" y="181" width="120" height="80" as="geometry" />
        </mxCell>
        <mxCell id="FqokVIeA1Z4mHKtunvhO-6" style="edgeStyle=none;rounded=0;orthogonalLoop=1;jettySize=auto;html=1;entryX=0;entryY=0.5;entryDx=0;entryDy=0;" edge="1" parent="1" source="FqokVIeA1Z4mHKtunvhO-2" target="FqokVIeA1Z4mHKtunvhO-4">
          <mxGeometry relative="1" as="geometry" />
        </mxCell>
        <mxCell id="FqokVIeA1Z4mHKtunvhO-9" value="ut日志" style="edgeLabel;html=1;align=center;verticalAlign=middle;resizable=0;points=[];" vertex="1" connectable="0" parent="FqokVIeA1Z4mHKtunvhO-6">
          <mxGeometry x="-0.2342" y="2" relative="1" as="geometry">
            <mxPoint as="offset" />
          </mxGeometry>
        </mxCell>
        <mxCell id="FqokVIeA1Z4mHKtunvhO-2" value="metaq" style="ellipse;whiteSpace=wrap;html=1;fillColor=#f5f5f5;fontColor=#333333;strokeColor=#666666;" vertex="1" parent="1">
          <mxGeometry x="57" y="306" width="120" height="80" as="geometry" />
        </mxCell>
        <mxCell id="FqokVIeA1Z4mHKtunvhO-7" style="edgeStyle=none;rounded=0;orthogonalLoop=1;jettySize=auto;html=1;entryX=0;entryY=1;entryDx=0;entryDy=0;" edge="1" parent="1" source="FqokVIeA1Z4mHKtunvhO-3" target="FqokVIeA1Z4mHKtunvhO-4">
          <mxGeometry relative="1" as="geometry" />
        </mxCell>
        <mxCell id="FqokVIeA1Z4mHKtunvhO-10" value="行为数据" style="edgeLabel;html=1;align=center;verticalAlign=middle;resizable=0;points=[];" vertex="1" connectable="0" parent="FqokVIeA1Z4mHKtunvhO-7">
          <mxGeometry x="-0.1481" y="2" relative="1" as="geometry">
            <mxPoint as="offset" />
          </mxGeometry>
        </mxCell>
        <mxCell id="FqokVIeA1Z4mHKtunvhO-3" value="TimeTunnel" style="ellipse;whiteSpace=wrap;html=1;fillColor=#f5f5f5;fontColor=#333333;strokeColor=#666666;" vertex="1" parent="1">
          <mxGeometry x="60" y="437" width="120" height="80" as="geometry" />
        </mxCell>
        <mxCell id="FqokVIeA1Z4mHKtunvhO-4" value="全网投放二三方系统&lt;br&gt;fc-darter" style="rounded=0;whiteSpace=wrap;html=1;fillColor=#ffe6cc;strokeColor=#d79b00;" vertex="1" parent="1">
          <mxGeometry x="306" y="297" width="160" height="77" as="geometry" />
        </mxCell>
        <mxCell id="FqokVIeA1Z4mHKtunvhO-12" value="巨浪" style="rounded=0;whiteSpace=wrap;html=1;fillColor=#f5f5f5;fontColor=#333333;strokeColor=#666666;" vertex="1" parent="1">
          <mxGeometry x="514" y="302" width="120" height="60" as="geometry" />
        </mxCell>
        <mxCell id="FqokVIeA1Z4mHKtunvhO-14" value="" style="rounded=0;whiteSpace=wrap;html=1;dashed=1;dashPattern=1 4;" vertex="1" parent="1">
          <mxGeometry x="678" y="118" width="136" height="477" as="geometry" />
        </mxCell>
        <mxCell id="FqokVIeA1Z4mHKtunvhO-15" value="头条" style="rounded=0;whiteSpace=wrap;html=1;fillColor=#f5f5f5;fontColor=#333333;strokeColor=#666666;" vertex="1" parent="1">
          <mxGeometry x="692" y="167" width="112" height="58" as="geometry" />
        </mxCell>
        <mxCell id="FqokVIeA1Z4mHKtunvhO-18" value="小米" style="rounded=0;whiteSpace=wrap;html=1;fillColor=#f5f5f5;fontColor=#333333;strokeColor=#666666;" vertex="1" parent="1">
          <mxGeometry x="692" y="254" width="112" height="58" as="geometry" />
        </mxCell>
        <mxCell id="FqokVIeA1Z4mHKtunvhO-19" value="广点通" style="rounded=0;whiteSpace=wrap;html=1;fillColor=#f5f5f5;fontColor=#333333;strokeColor=#666666;" vertex="1" parent="1">
          <mxGeometry x="695" y="345" width="112" height="58" as="geometry" />
        </mxCell>
        <mxCell id="FqokVIeA1Z4mHKtunvhO-20" value="华为" style="rounded=0;whiteSpace=wrap;html=1;fillColor=#f5f5f5;fontColor=#333333;strokeColor=#666666;" vertex="1" parent="1">
          <mxGeometry x="695" y="434" width="112" height="58" as="geometry" />
        </mxCell>
        <mxCell id="FqokVIeA1Z4mHKtunvhO-21" value="网盟" style="rounded=0;whiteSpace=wrap;html=1;fillColor=#f5f5f5;fontColor=#333333;strokeColor=#666666;" vertex="1" parent="1">
          <mxGeometry x="695" y="529" width="112" height="58" as="geometry" />
        </mxCell>
        <mxCell id="FqokVIeA1Z4mHKtunvhO-22" value="媒体" style="text;html=1;strokeColor=none;fillColor=none;align=center;verticalAlign=middle;whiteSpace=wrap;rounded=0;dashed=1;dashPattern=1 4;" vertex="1" parent="1">
          <mxGeometry x="716" y="125" width="60" height="30" as="geometry" />
        </mxCell>
        <mxCell id="FqokVIeA1Z4mHKtunvhO-23" value="考拉/手猫app上报用户行为数据" style="text;html=1;strokeColor=none;fillColor=none;align=center;verticalAlign=middle;whiteSpace=wrap;rounded=0;dashed=1;dashPattern=1 4;" vertex="1" parent="1">
          <mxGeometry x="52" y="138" width="183" height="30" as="geometry" />
        </mxCell>
        <mxCell id="FqokVIeA1Z4mHKtunvhO-24" value="" style="shape=flexArrow;endArrow=classic;html=1;rounded=0;endWidth=13;endSize=3.84;width=5;" edge="1" parent="1">
          <mxGeometry width="50" height="50" relative="1" as="geometry">
            <mxPoint x="475" y="334" as="sourcePoint" />
            <mxPoint x="506" y="334" as="targetPoint" />
          </mxGeometry>
        </mxCell>
        <mxCell id="FqokVIeA1Z4mHKtunvhO-25" value="" style="shape=flexArrow;endArrow=classic;html=1;rounded=0;endWidth=13;endSize=3.84;width=5;" edge="1" parent="1">
          <mxGeometry width="50" height="50" relative="1" as="geometry">
            <mxPoint x="641" y="333" as="sourcePoint" />
            <mxPoint x="672" y="333" as="targetPoint" />
          </mxGeometry>
        </mxCell>
        <mxCell id="FqokVIeA1Z4mHKtunvhO-35" value="客户端上报到端事件" style="rounded=1;whiteSpace=wrap;html=1;arcSize=40;fontColor=#000000;fillColor=#ffffc0;strokeColor=#ff0000;" vertex="1" parent="1">
          <mxGeometry x="41" y="1330" width="120" height="40" as="geometry" />
        </mxCell>
        <mxCell id="FqokVIeA1Z4mHKtunvhO-36" value="" style="edgeStyle=orthogonalEdgeStyle;html=1;verticalAlign=bottom;endArrow=open;endSize=8;strokeColor=#ff0000;rounded=0;" edge="1" source="FqokVIeA1Z4mHKtunvhO-35" parent="1">
          <mxGeometry relative="1" as="geometry">
            <mxPoint x="101" y="1425" as="targetPoint" />
          </mxGeometry>
        </mxCell>
        <mxCell id="FqokVIeA1Z4mHKtunvhO-39" value="" style="ellipse;html=1;shape=startState;fillColor=#000000;strokeColor=#ff0000;dashed=1;dashPattern=1 4;" vertex="1" parent="1">
          <mxGeometry x="86" y="1253" width="30" height="30" as="geometry" />
        </mxCell>
        <mxCell id="FqokVIeA1Z4mHKtunvhO-40" value="" style="edgeStyle=orthogonalEdgeStyle;html=1;verticalAlign=bottom;endArrow=open;endSize=8;strokeColor=#ff0000;rounded=0;" edge="1" source="FqokVIeA1Z4mHKtunvhO-39" parent="1">
          <mxGeometry relative="1" as="geometry">
            <mxPoint x="101" y="1332" as="targetPoint" />
          </mxGeometry>
        </mxCell>
        <mxCell id="FqokVIeA1Z4mHKtunvhO-41" value="TimeTunnel" style="rounded=1;whiteSpace=wrap;html=1;arcSize=40;fontColor=#000000;fillColor=#ffffc0;strokeColor=#ff0000;" vertex="1" parent="1">
          <mxGeometry x="41" y="1427" width="120" height="40" as="geometry" />
        </mxCell>
        <mxCell id="FqokVIeA1Z4mHKtunvhO-42" value="" style="edgeStyle=orthogonalEdgeStyle;html=1;verticalAlign=bottom;endArrow=open;endSize=8;strokeColor=#ff0000;rounded=0;" edge="1" source="FqokVIeA1Z4mHKtunvhO-41" parent="1">
          <mxGeometry relative="1" as="geometry">
            <mxPoint x="101" y="1527" as="targetPoint" />
          </mxGeometry>
        </mxCell>
        <mxCell id="FqokVIeA1Z4mHKtunvhO-43" value="事件过滤" style="rounded=1;whiteSpace=wrap;html=1;arcSize=40;fontColor=#000000;fillColor=#ffffc0;strokeColor=#ff0000;" vertex="1" parent="1">
          <mxGeometry x="388" y="1272" width="120" height="40" as="geometry" />
        </mxCell>
        <mxCell id="FqokVIeA1Z4mHKtunvhO-44" value="" style="edgeStyle=orthogonalEdgeStyle;html=1;verticalAlign=bottom;endArrow=open;endSize=8;strokeColor=#ff0000;rounded=0;" edge="1" source="FqokVIeA1Z4mHKtunvhO-43" parent="1">
          <mxGeometry relative="1" as="geometry">
            <mxPoint x="448" y="1337" as="targetPoint" />
          </mxGeometry>
        </mxCell>
        <mxCell id="FqokVIeA1Z4mHKtunvhO-45" value="处理器匹配、获取" style="rounded=1;whiteSpace=wrap;html=1;arcSize=40;fontColor=#000000;fillColor=#ffffc0;strokeColor=#ff0000;" vertex="1" parent="1">
          <mxGeometry x="389" y="1336" width="120" height="40" as="geometry" />
        </mxCell>
        <mxCell id="FqokVIeA1Z4mHKtunvhO-46" value="" style="edgeStyle=orthogonalEdgeStyle;html=1;verticalAlign=bottom;endArrow=open;endSize=8;strokeColor=#ff0000;rounded=0;" edge="1" source="FqokVIeA1Z4mHKtunvhO-45" parent="1">
          <mxGeometry relative="1" as="geometry">
            <mxPoint x="449" y="1395" as="targetPoint" />
          </mxGeometry>
        </mxCell>
        <mxCell id="FqokVIeA1Z4mHKtunvhO-47" value="遍历" style="shape=umlFrame;whiteSpace=wrap;html=1;dashed=1;dashPattern=1 4;" vertex="1" parent="1">
          <mxGeometry x="221" y="1398" width="425" height="401" as="geometry" />
        </mxCell>
        <mxCell id="FqokVIeA1Z4mHKtunvhO-48" value="是否已上报回访" style="rounded=1;whiteSpace=wrap;html=1;arcSize=40;fontColor=#000000;fillColor=#ffffc0;strokeColor=#ff0000;" vertex="1" parent="1">
          <mxGeometry x="232" y="1433" width="88" height="40" as="geometry" />
        </mxCell>
        <mxCell id="FqokVIeA1Z4mHKtunvhO-49" value="" style="edgeStyle=orthogonalEdgeStyle;html=1;verticalAlign=bottom;endArrow=open;endSize=8;strokeColor=#ff0000;rounded=0;" edge="1" source="FqokVIeA1Z4mHKtunvhO-48" parent="1">
          <mxGeometry relative="1" as="geometry">
            <mxPoint x="276" y="1489" as="targetPoint" />
          </mxGeometry>
        </mxCell>
        <mxCell id="FqokVIeA1Z4mHKtunvhO-51" value="是否有效" style="rhombus;whiteSpace=wrap;html=1;fillColor=#ffffc0;strokeColor=#ff0000;" vertex="1" parent="1">
          <mxGeometry x="66" y="1630" width="80" height="40" as="geometry" />
        </mxCell>
        <mxCell id="FqokVIeA1Z4mHKtunvhO-52" value="yes" style="edgeStyle=orthogonalEdgeStyle;html=1;align=left;verticalAlign=bottom;endArrow=open;endSize=8;strokeColor=#ff0000;rounded=0;" edge="1" source="FqokVIeA1Z4mHKtunvhO-51" parent="1" target="FqokVIeA1Z4mHKtunvhO-43">
          <mxGeometry x="-1" relative="1" as="geometry">
            <mxPoint x="196" y="1209" as="targetPoint" />
            <Array as="points">
              <mxPoint x="189" y="1650" />
              <mxPoint x="189" y="1251" />
              <mxPoint x="448" y="1251" />
            </Array>
          </mxGeometry>
        </mxCell>
        <mxCell id="FqokVIeA1Z4mHKtunvhO-53" value="no" style="edgeStyle=orthogonalEdgeStyle;html=1;align=left;verticalAlign=top;endArrow=open;endSize=8;strokeColor=#ff0000;rounded=0;entryX=0.5;entryY=0;entryDx=0;entryDy=0;" edge="1" source="FqokVIeA1Z4mHKtunvhO-51" parent="1" target="FqokVIeA1Z4mHKtunvhO-56">
          <mxGeometry x="-1" relative="1" as="geometry">
            <mxPoint x="106" y="1708" as="targetPoint" />
            <Array as="points">
              <mxPoint x="106" y="1839" />
              <mxPoint x="228" y="1839" />
            </Array>
          </mxGeometry>
        </mxCell>
        <mxCell id="FqokVIeA1Z4mHKtunvhO-54" value="事件校验" style="rounded=1;whiteSpace=wrap;html=1;arcSize=40;fontColor=#000000;fillColor=#ffffc0;strokeColor=#ff0000;" vertex="1" parent="1">
          <mxGeometry x="46" y="1532" width="120" height="40" as="geometry" />
        </mxCell>
        <mxCell id="FqokVIeA1Z4mHKtunvhO-55" value="" style="edgeStyle=orthogonalEdgeStyle;html=1;verticalAlign=bottom;endArrow=open;endSize=8;strokeColor=#ff0000;rounded=0;" edge="1" source="FqokVIeA1Z4mHKtunvhO-54" parent="1">
          <mxGeometry relative="1" as="geometry">
            <mxPoint x="106" y="1632" as="targetPoint" />
          </mxGeometry>
        </mxCell>
        <mxCell id="FqokVIeA1Z4mHKtunvhO-56" value="" style="ellipse;html=1;shape=endState;fillColor=#000000;strokeColor=#ff0000;dashed=1;dashPattern=1 4;" vertex="1" parent="1">
          <mxGeometry x="214" y="1879" width="30" height="30" as="geometry" />
        </mxCell>
        <mxCell id="FqokVIeA1Z4mHKtunvhO-57" value="已上报" style="rhombus;whiteSpace=wrap;html=1;fillColor=#ffffc0;strokeColor=#ff0000;" vertex="1" parent="1">
          <mxGeometry x="235" y="1489" width="80" height="40" as="geometry" />
        </mxCell>
        <mxCell id="FqokVIeA1Z4mHKtunvhO-59" value="" style="edgeStyle=orthogonalEdgeStyle;html=1;align=left;verticalAlign=top;endArrow=open;endSize=8;strokeColor=#ff0000;rounded=0;" edge="1" source="FqokVIeA1Z4mHKtunvhO-57" parent="1">
          <mxGeometry x="-1" relative="1" as="geometry">
            <mxPoint x="275" y="1548" as="targetPoint" />
          </mxGeometry>
        </mxCell>
        <mxCell id="FqokVIeA1Z4mHKtunvhO-72" value="no" style="edgeLabel;html=1;align=center;verticalAlign=middle;resizable=0;points=[];" vertex="1" connectable="0" parent="FqokVIeA1Z4mHKtunvhO-59">
          <mxGeometry x="-0.4762" relative="1" as="geometry">
            <mxPoint x="11" as="offset" />
          </mxGeometry>
        </mxCell>
        <mxCell id="FqokVIeA1Z4mHKtunvhO-64" value="上报给巨浪" style="rounded=1;whiteSpace=wrap;html=1;arcSize=40;fontColor=#000000;fillColor=#ffffc0;strokeColor=#ff0000;" vertex="1" parent="1">
          <mxGeometry x="231" y="1613" width="88" height="40" as="geometry" />
        </mxCell>
        <mxCell id="FqokVIeA1Z4mHKtunvhO-65" value="" style="edgeStyle=orthogonalEdgeStyle;html=1;verticalAlign=bottom;endArrow=open;endSize=8;strokeColor=#ff0000;rounded=0;startArrow=none;" edge="1" parent="1" source="FqokVIeA1Z4mHKtunvhO-66">
          <mxGeometry relative="1" as="geometry">
            <mxPoint x="275" y="1675" as="targetPoint" />
          </mxGeometry>
        </mxCell>
        <mxCell id="FqokVIeA1Z4mHKtunvhO-68" value="yes" style="edgeStyle=orthogonalEdgeStyle;html=1;align=left;verticalAlign=top;endArrow=open;endSize=8;strokeColor=#ff0000;rounded=0;" edge="1" source="FqokVIeA1Z4mHKtunvhO-66" parent="1">
          <mxGeometry x="-1" y="-12" relative="1" as="geometry">
            <mxPoint x="275" y="1736" as="targetPoint" />
            <mxPoint x="12" y="-12" as="offset" />
          </mxGeometry>
        </mxCell>
        <mxCell id="FqokVIeA1Z4mHKtunvhO-69" value="&lt;font color=&quot;#ff0313&quot;&gt;昨日到端&lt;/font&gt;" style="rhombus;whiteSpace=wrap;html=1;fillColor=#ffffc0;strokeColor=#ff0000;" vertex="1" parent="1">
          <mxGeometry x="235" y="1548" width="80" height="40" as="geometry" />
        </mxCell>
        <mxCell id="FqokVIeA1Z4mHKtunvhO-71" value="yes" style="edgeStyle=orthogonalEdgeStyle;html=1;align=left;verticalAlign=top;endArrow=open;endSize=8;strokeColor=#ff0000;rounded=0;entryX=0.5;entryY=0;entryDx=0;entryDy=0;" edge="1" source="FqokVIeA1Z4mHKtunvhO-69" parent="1" target="FqokVIeA1Z4mHKtunvhO-64">
          <mxGeometry x="-1" y="9" relative="1" as="geometry">
            <mxPoint x="272" y="1617" as="targetPoint" />
            <Array as="points" />
            <mxPoint x="-6" y="-9" as="offset" />
          </mxGeometry>
        </mxCell>
        <mxCell id="FqokVIeA1Z4mHKtunvhO-66" value="上报成功" style="rhombus;whiteSpace=wrap;html=1;fillColor=#ffffc0;strokeColor=#ff0000;" vertex="1" parent="1">
          <mxGeometry x="235" y="1672" width="80" height="40" as="geometry" />
        </mxCell>
        <mxCell id="FqokVIeA1Z4mHKtunvhO-73" value="" style="edgeStyle=orthogonalEdgeStyle;html=1;verticalAlign=bottom;endArrow=none;endSize=8;strokeColor=#ff0000;rounded=0;" edge="1" parent="1" source="FqokVIeA1Z4mHKtunvhO-64" target="FqokVIeA1Z4mHKtunvhO-66">
          <mxGeometry relative="1" as="geometry">
            <mxPoint x="275" y="1675" as="targetPoint" />
            <mxPoint x="275" y="1653" as="sourcePoint" />
          </mxGeometry>
        </mxCell>
        <mxCell id="FqokVIeA1Z4mHKtunvhO-76" value="记录缓存" style="rounded=1;whiteSpace=wrap;html=1;arcSize=40;fontColor=#000000;fillColor=#ffffc0;strokeColor=#ff0000;" vertex="1" parent="1">
          <mxGeometry x="232" y="1736" width="88" height="40" as="geometry" />
        </mxCell>
        <mxCell id="FqokVIeA1Z4mHKtunvhO-79" value="是否已上报首唤" style="rounded=1;whiteSpace=wrap;html=1;arcSize=40;fontColor=#000000;fillColor=#ffffc0;strokeColor=#ff0000;" vertex="1" parent="1">
          <mxGeometry x="378" y="1431" width="88" height="40" as="geometry" />
        </mxCell>
        <mxCell id="FqokVIeA1Z4mHKtunvhO-80" value="" style="edgeStyle=orthogonalEdgeStyle;html=1;verticalAlign=bottom;endArrow=open;endSize=8;strokeColor=#ff0000;rounded=0;" edge="1" parent="1" source="FqokVIeA1Z4mHKtunvhO-79">
          <mxGeometry relative="1" as="geometry">
            <mxPoint x="422" y="1487" as="targetPoint" />
          </mxGeometry>
        </mxCell>
        <mxCell id="FqokVIeA1Z4mHKtunvhO-81" value="已上报" style="rhombus;whiteSpace=wrap;html=1;fillColor=#ffffc0;strokeColor=#ff0000;" vertex="1" parent="1">
          <mxGeometry x="381" y="1487" width="80" height="40" as="geometry" />
        </mxCell>
        <mxCell id="FqokVIeA1Z4mHKtunvhO-82" value="no" style="edgeLabel;html=1;align=center;verticalAlign=middle;resizable=0;points=[];" vertex="1" connectable="0" parent="1">
          <mxGeometry x="432" y="1532" as="geometry" />
        </mxCell>
        <mxCell id="FqokVIeA1Z4mHKtunvhO-86" value="上报给巨浪" style="rounded=1;whiteSpace=wrap;html=1;arcSize=40;fontColor=#000000;fillColor=#ffffc0;strokeColor=#ff0000;" vertex="1" parent="1">
          <mxGeometry x="378" y="1554" width="88" height="40" as="geometry" />
        </mxCell>
        <mxCell id="FqokVIeA1Z4mHKtunvhO-87" value="" style="edgeStyle=orthogonalEdgeStyle;html=1;verticalAlign=bottom;endArrow=open;endSize=8;strokeColor=#ff0000;rounded=0;startArrow=none;" edge="1" parent="1" source="FqokVIeA1Z4mHKtunvhO-90">
          <mxGeometry relative="1" as="geometry">
            <mxPoint x="422" y="1616" as="targetPoint" />
          </mxGeometry>
        </mxCell>
        <mxCell id="FqokVIeA1Z4mHKtunvhO-88" value="yes" style="edgeStyle=orthogonalEdgeStyle;html=1;align=left;verticalAlign=top;endArrow=open;endSize=8;strokeColor=#ff0000;rounded=0;" edge="1" parent="1" source="FqokVIeA1Z4mHKtunvhO-90">
          <mxGeometry x="-1" y="-12" relative="1" as="geometry">
            <mxPoint x="422" y="1677" as="targetPoint" />
            <mxPoint x="12" y="-12" as="offset" />
          </mxGeometry>
        </mxCell>
        <mxCell id="FqokVIeA1Z4mHKtunvhO-89" value="yes" style="edgeStyle=orthogonalEdgeStyle;html=1;align=left;verticalAlign=top;endArrow=open;endSize=8;strokeColor=#ff0000;rounded=0;entryX=0.5;entryY=0;entryDx=0;entryDy=0;" edge="1" parent="1" target="FqokVIeA1Z4mHKtunvhO-86">
          <mxGeometry x="-1" y="9" relative="1" as="geometry">
            <mxPoint x="419" y="1558" as="targetPoint" />
            <mxPoint x="422" y="1529" as="sourcePoint" />
            <Array as="points" />
            <mxPoint x="-6" y="-9" as="offset" />
          </mxGeometry>
        </mxCell>
        <mxCell id="FqokVIeA1Z4mHKtunvhO-90" value="上报成功" style="rhombus;whiteSpace=wrap;html=1;fillColor=#ffffc0;strokeColor=#ff0000;" vertex="1" parent="1">
          <mxGeometry x="382" y="1613" width="80" height="40" as="geometry" />
        </mxCell>
        <mxCell id="FqokVIeA1Z4mHKtunvhO-91" value="" style="edgeStyle=orthogonalEdgeStyle;html=1;verticalAlign=bottom;endArrow=none;endSize=8;strokeColor=#ff0000;rounded=0;" edge="1" parent="1" source="FqokVIeA1Z4mHKtunvhO-86" target="FqokVIeA1Z4mHKtunvhO-90">
          <mxGeometry relative="1" as="geometry">
            <mxPoint x="422" y="1616" as="targetPoint" />
            <mxPoint x="422" y="1594" as="sourcePoint" />
          </mxGeometry>
        </mxCell>
        <mxCell id="FqokVIeA1Z4mHKtunvhO-92" value="记录缓存" style="rounded=1;whiteSpace=wrap;html=1;arcSize=40;fontColor=#000000;fillColor=#ffffc0;strokeColor=#ff0000;" vertex="1" parent="1">
          <mxGeometry x="379" y="1677" width="88" height="40" as="geometry" />
        </mxCell>
        <mxCell id="FqokVIeA1Z4mHKtunvhO-93" value="是否已上报次留" style="rounded=1;whiteSpace=wrap;html=1;arcSize=40;fontColor=#000000;fillColor=#ffffc0;strokeColor=#ff0000;" vertex="1" parent="1">
          <mxGeometry x="521" y="1427" width="88" height="40" as="geometry" />
        </mxCell>
        <mxCell id="FqokVIeA1Z4mHKtunvhO-94" value="" style="edgeStyle=orthogonalEdgeStyle;html=1;verticalAlign=bottom;endArrow=open;endSize=8;strokeColor=#ff0000;rounded=0;" edge="1" parent="1" source="FqokVIeA1Z4mHKtunvhO-93">
          <mxGeometry relative="1" as="geometry">
            <mxPoint x="565" y="1483" as="targetPoint" />
          </mxGeometry>
        </mxCell>
        <mxCell id="FqokVIeA1Z4mHKtunvhO-95" value="已上报" style="rhombus;whiteSpace=wrap;html=1;fillColor=#ffffc0;strokeColor=#ff0000;" vertex="1" parent="1">
          <mxGeometry x="524" y="1483" width="80" height="40" as="geometry" />
        </mxCell>
        <mxCell id="FqokVIeA1Z4mHKtunvhO-96" value="" style="edgeStyle=orthogonalEdgeStyle;html=1;align=left;verticalAlign=top;endArrow=open;endSize=8;strokeColor=#ff0000;rounded=0;" edge="1" parent="1" source="FqokVIeA1Z4mHKtunvhO-95">
          <mxGeometry x="-1" relative="1" as="geometry">
            <mxPoint x="564" y="1542" as="targetPoint" />
          </mxGeometry>
        </mxCell>
        <mxCell id="FqokVIeA1Z4mHKtunvhO-97" value="no" style="edgeLabel;html=1;align=center;verticalAlign=middle;resizable=0;points=[];" vertex="1" connectable="0" parent="FqokVIeA1Z4mHKtunvhO-96">
          <mxGeometry x="-0.4762" relative="1" as="geometry">
            <mxPoint x="11" as="offset" />
          </mxGeometry>
        </mxCell>
        <mxCell id="FqokVIeA1Z4mHKtunvhO-98" value="上报给巨浪" style="rounded=1;whiteSpace=wrap;html=1;arcSize=40;fontColor=#000000;fillColor=#ffffc0;strokeColor=#ff0000;" vertex="1" parent="1">
          <mxGeometry x="520" y="1607" width="88" height="40" as="geometry" />
        </mxCell>
        <mxCell id="FqokVIeA1Z4mHKtunvhO-99" value="" style="edgeStyle=orthogonalEdgeStyle;html=1;verticalAlign=bottom;endArrow=open;endSize=8;strokeColor=#ff0000;rounded=0;startArrow=none;" edge="1" parent="1" source="FqokVIeA1Z4mHKtunvhO-103">
          <mxGeometry relative="1" as="geometry">
            <mxPoint x="564" y="1669" as="targetPoint" />
          </mxGeometry>
        </mxCell>
        <mxCell id="FqokVIeA1Z4mHKtunvhO-100" value="yes" style="edgeStyle=orthogonalEdgeStyle;html=1;align=left;verticalAlign=top;endArrow=open;endSize=8;strokeColor=#ff0000;rounded=0;" edge="1" parent="1" source="FqokVIeA1Z4mHKtunvhO-103">
          <mxGeometry x="-1" y="-12" relative="1" as="geometry">
            <mxPoint x="564" y="1730" as="targetPoint" />
            <mxPoint x="12" y="-12" as="offset" />
          </mxGeometry>
        </mxCell>
        <mxCell id="FqokVIeA1Z4mHKtunvhO-101" value="&lt;font color=&quot;#ff0008&quot;&gt;昨日激活&lt;/font&gt;" style="rhombus;whiteSpace=wrap;html=1;fillColor=#ffffc0;strokeColor=#ff0000;" vertex="1" parent="1">
          <mxGeometry x="524" y="1542" width="80" height="40" as="geometry" />
        </mxCell>
        <mxCell id="FqokVIeA1Z4mHKtunvhO-102" value="yes" style="edgeStyle=orthogonalEdgeStyle;html=1;align=left;verticalAlign=top;endArrow=open;endSize=8;strokeColor=#ff0000;rounded=0;entryX=0.5;entryY=0;entryDx=0;entryDy=0;" edge="1" parent="1" source="FqokVIeA1Z4mHKtunvhO-101" target="FqokVIeA1Z4mHKtunvhO-98">
          <mxGeometry x="-1" y="9" relative="1" as="geometry">
            <mxPoint x="561" y="1611" as="targetPoint" />
            <Array as="points" />
            <mxPoint x="-6" y="-9" as="offset" />
          </mxGeometry>
        </mxCell>
        <mxCell id="FqokVIeA1Z4mHKtunvhO-103" value="上报成功" style="rhombus;whiteSpace=wrap;html=1;fillColor=#ffffc0;strokeColor=#ff0000;" vertex="1" parent="1">
          <mxGeometry x="524" y="1666" width="80" height="40" as="geometry" />
        </mxCell>
        <mxCell id="FqokVIeA1Z4mHKtunvhO-104" value="" style="edgeStyle=orthogonalEdgeStyle;html=1;verticalAlign=bottom;endArrow=none;endSize=8;strokeColor=#ff0000;rounded=0;" edge="1" parent="1" source="FqokVIeA1Z4mHKtunvhO-98" target="FqokVIeA1Z4mHKtunvhO-103">
          <mxGeometry relative="1" as="geometry">
            <mxPoint x="564" y="1669" as="targetPoint" />
            <mxPoint x="564" y="1647" as="sourcePoint" />
          </mxGeometry>
        </mxCell>
        <mxCell id="FqokVIeA1Z4mHKtunvhO-105" value="记录缓存" style="rounded=1;whiteSpace=wrap;html=1;arcSize=40;fontColor=#000000;fillColor=#ffffc0;strokeColor=#ff0000;" vertex="1" parent="1">
          <mxGeometry x="521" y="1730" width="88" height="40" as="geometry" />
        </mxCell>
        <mxCell id="FqokVIeA1Z4mHKtunvhO-106" value="" style="edgeStyle=orthogonalEdgeStyle;html=1;align=left;verticalAlign=top;endArrow=open;endSize=8;strokeColor=#ff0000;rounded=0;entryX=0.5;entryY=0;entryDx=0;entryDy=0;" edge="1" parent="1" target="FqokVIeA1Z4mHKtunvhO-56">
          <mxGeometry x="-1" relative="1" as="geometry">
            <mxPoint x="238" y="1891" as="targetPoint" />
            <mxPoint x="440" y="1803" as="sourcePoint" />
            <Array as="points">
              <mxPoint x="440" y="1839" />
              <mxPoint x="228" y="1839" />
            </Array>
          </mxGeometry>
        </mxCell>
      </root>
    </mxGraphModel>
  </diagram>
</mxfile>
